<mxfile host="app.diagrams.net" agent="Mozilla/5.0 (Windows NT 10.0; Win64; x64) AppleWebKit/537.36 (KHTML, like Gecko) Chrome/140.0.0.0 Safari/537.36" version="28.2.0">
  <diagram name="第 1 页" id="-jprFqWv1nAlADMPCuG3">
    <mxGraphModel dx="2067" dy="646" grid="1" gridSize="10" guides="1" tooltips="1" connect="1" arrows="1" fold="1" page="1" pageScale="1" pageWidth="827" pageHeight="1169" math="0" shadow="0">
      <root>
        <mxCell id="0" />
        <mxCell id="1" parent="0" />
        <mxCell id="s-aq9gnLRd71n7YTumPi-225" value="Belongs" style="html=1;whiteSpace=wrap;aspect=fixed;shape=isoRectangle;" vertex="1" parent="1">
          <mxGeometry x="560" y="341" width="98.33" height="59" as="geometry" />
        </mxCell>
        <mxCell id="s-aq9gnLRd71n7YTumPi-246" value="" style="edgeStyle=orthogonalEdgeStyle;rounded=0;orthogonalLoop=1;jettySize=auto;html=1;endArrow=none;endFill=0;strokeWidth=3;" edge="1" parent="1" source="s-aq9gnLRd71n7YTumPi-230" target="s-aq9gnLRd71n7YTumPi-233">
          <mxGeometry relative="1" as="geometry" />
        </mxCell>
        <mxCell id="s-aq9gnLRd71n7YTumPi-230" value="Contributed" style="html=1;whiteSpace=wrap;aspect=fixed;shape=isoRectangle;" vertex="1" parent="1">
          <mxGeometry x="240" y="340" width="100" height="60" as="geometry" />
        </mxCell>
        <mxCell id="s-aq9gnLRd71n7YTumPi-251" style="edgeStyle=orthogonalEdgeStyle;rounded=0;orthogonalLoop=1;jettySize=auto;html=1;exitX=1;exitY=0.5;exitDx=0;exitDy=0;endArrow=none;endFill=0;strokeWidth=3;" edge="1" parent="1" source="s-aq9gnLRd71n7YTumPi-233" target="s-aq9gnLRd71n7YTumPi-225">
          <mxGeometry relative="1" as="geometry" />
        </mxCell>
        <mxCell id="s-aq9gnLRd71n7YTumPi-233" value="Track" style="whiteSpace=wrap;html=1;align=center;" vertex="1" parent="1">
          <mxGeometry x="400" y="350" width="100" height="40" as="geometry" />
        </mxCell>
        <mxCell id="s-aq9gnLRd71n7YTumPi-252" style="edgeStyle=orthogonalEdgeStyle;rounded=0;orthogonalLoop=1;jettySize=auto;html=1;exitX=0;exitY=0.5;exitDx=0;exitDy=0;endArrow=none;endFill=0;" edge="1" parent="1" source="s-aq9gnLRd71n7YTumPi-234" target="s-aq9gnLRd71n7YTumPi-225">
          <mxGeometry relative="1" as="geometry" />
        </mxCell>
        <mxCell id="s-aq9gnLRd71n7YTumPi-234" value="Album" style="whiteSpace=wrap;html=1;align=center;" vertex="1" parent="1">
          <mxGeometry x="700" y="350" width="100" height="40" as="geometry" />
        </mxCell>
        <mxCell id="s-aq9gnLRd71n7YTumPi-256" style="edgeStyle=orthogonalEdgeStyle;rounded=0;orthogonalLoop=1;jettySize=auto;html=1;exitX=0.5;exitY=0;exitDx=0;exitDy=0;endArrow=none;endFill=0;" edge="1" parent="1" source="s-aq9gnLRd71n7YTumPi-237" target="s-aq9gnLRd71n7YTumPi-255">
          <mxGeometry relative="1" as="geometry" />
        </mxCell>
        <mxCell id="s-aq9gnLRd71n7YTumPi-269" style="edgeStyle=orthogonalEdgeStyle;rounded=0;orthogonalLoop=1;jettySize=auto;html=1;exitX=0.5;exitY=1;exitDx=0;exitDy=0;endArrow=none;endFill=0;" edge="1" parent="1" source="s-aq9gnLRd71n7YTumPi-237" target="s-aq9gnLRd71n7YTumPi-293">
          <mxGeometry relative="1" as="geometry">
            <mxPoint x="290" y="680" as="targetPoint" />
          </mxGeometry>
        </mxCell>
        <mxCell id="s-aq9gnLRd71n7YTumPi-272" style="edgeStyle=orthogonalEdgeStyle;rounded=0;orthogonalLoop=1;jettySize=auto;html=1;exitX=1;exitY=0.5;exitDx=0;exitDy=0;strokeWidth=1;" edge="1" parent="1" source="s-aq9gnLRd71n7YTumPi-237" target="s-aq9gnLRd71n7YTumPi-294">
          <mxGeometry relative="1" as="geometry">
            <mxPoint x="495" y="660" as="targetPoint" />
          </mxGeometry>
        </mxCell>
        <mxCell id="s-aq9gnLRd71n7YTumPi-237" value="Customer" style="whiteSpace=wrap;html=1;align=center;" vertex="1" parent="1">
          <mxGeometry x="285" y="660" width="100" height="40" as="geometry" />
        </mxCell>
        <mxCell id="s-aq9gnLRd71n7YTumPi-238" value="Artist" style="whiteSpace=wrap;html=1;align=center;" vertex="1" parent="1">
          <mxGeometry x="80" y="350" width="100" height="40" as="geometry" />
        </mxCell>
        <mxCell id="s-aq9gnLRd71n7YTumPi-240" style="rounded=0;orthogonalLoop=1;jettySize=auto;html=1;exitX=0.5;exitY=1;exitDx=0;exitDy=0;entryX=0.5;entryY=0;entryDx=0;entryDy=0;endArrow=none;endFill=0;" edge="1" parent="1" source="s-aq9gnLRd71n7YTumPi-239" target="s-aq9gnLRd71n7YTumPi-233">
          <mxGeometry relative="1" as="geometry" />
        </mxCell>
        <mxCell id="s-aq9gnLRd71n7YTumPi-239" value="genre" style="ellipse;whiteSpace=wrap;html=1;align=center;" vertex="1" parent="1">
          <mxGeometry x="364" y="240" width="100" height="40" as="geometry" />
        </mxCell>
        <mxCell id="s-aq9gnLRd71n7YTumPi-242" style="rounded=0;orthogonalLoop=1;jettySize=auto;html=1;exitX=0.5;exitY=1;exitDx=0;exitDy=0;endArrow=none;endFill=0;" edge="1" parent="1" source="s-aq9gnLRd71n7YTumPi-241" target="s-aq9gnLRd71n7YTumPi-233">
          <mxGeometry relative="1" as="geometry" />
        </mxCell>
        <mxCell id="s-aq9gnLRd71n7YTumPi-241" value="duration" style="ellipse;whiteSpace=wrap;html=1;align=center;" vertex="1" parent="1">
          <mxGeometry x="490" y="240" width="100" height="40" as="geometry" />
        </mxCell>
        <mxCell id="s-aq9gnLRd71n7YTumPi-244" style="rounded=0;orthogonalLoop=1;jettySize=auto;html=1;exitX=0.5;exitY=1;exitDx=0;exitDy=0;endArrow=none;endFill=0;" edge="1" parent="1" source="s-aq9gnLRd71n7YTumPi-243" target="s-aq9gnLRd71n7YTumPi-233">
          <mxGeometry relative="1" as="geometry" />
        </mxCell>
        <mxCell id="s-aq9gnLRd71n7YTumPi-243" value="title" style="ellipse;whiteSpace=wrap;html=1;align=center;" vertex="1" parent="1">
          <mxGeometry x="540" y="280" width="100" height="40" as="geometry" />
        </mxCell>
        <mxCell id="s-aq9gnLRd71n7YTumPi-249" style="edgeStyle=orthogonalEdgeStyle;rounded=0;orthogonalLoop=1;jettySize=auto;html=1;exitX=1;exitY=0.5;exitDx=0;exitDy=0;entryX=0.005;entryY=0.508;entryDx=0;entryDy=0;entryPerimeter=0;endArrow=none;endFill=0;" edge="1" parent="1" source="s-aq9gnLRd71n7YTumPi-238" target="s-aq9gnLRd71n7YTumPi-230">
          <mxGeometry relative="1" as="geometry" />
        </mxCell>
        <mxCell id="s-aq9gnLRd71n7YTumPi-257" style="edgeStyle=orthogonalEdgeStyle;rounded=0;orthogonalLoop=1;jettySize=auto;html=1;exitX=0.5;exitY=0;exitDx=0;exitDy=0;endArrow=none;endFill=0;" edge="1" parent="1" source="s-aq9gnLRd71n7YTumPi-255" target="s-aq9gnLRd71n7YTumPi-233">
          <mxGeometry relative="1" as="geometry">
            <Array as="points">
              <mxPoint x="335" y="470" />
              <mxPoint x="450" y="470" />
            </Array>
          </mxGeometry>
        </mxCell>
        <mxCell id="s-aq9gnLRd71n7YTumPi-259" style="rounded=0;orthogonalLoop=1;jettySize=auto;html=1;exitX=1;exitY=0;exitDx=0;exitDy=0;endArrow=none;endFill=0;" edge="1" parent="1" source="s-aq9gnLRd71n7YTumPi-255" target="s-aq9gnLRd71n7YTumPi-258">
          <mxGeometry relative="1" as="geometry" />
        </mxCell>
        <mxCell id="s-aq9gnLRd71n7YTumPi-255" value="Listens_to" style="shape=rhombus;perimeter=rhombusPerimeter;whiteSpace=wrap;html=1;align=center;" vertex="1" parent="1">
          <mxGeometry x="280" y="520" width="110" height="50" as="geometry" />
        </mxCell>
        <mxCell id="s-aq9gnLRd71n7YTumPi-258" value="times" style="ellipse;whiteSpace=wrap;html=1;align=center;" vertex="1" parent="1">
          <mxGeometry x="390" y="570" width="100" height="40" as="geometry" />
        </mxCell>
        <mxCell id="s-aq9gnLRd71n7YTumPi-263" style="rounded=0;orthogonalLoop=1;jettySize=auto;html=1;exitX=0.5;exitY=1;exitDx=0;exitDy=0;endArrow=none;endFill=0;" edge="1" parent="1" source="s-aq9gnLRd71n7YTumPi-262" target="s-aq9gnLRd71n7YTumPi-234">
          <mxGeometry relative="1" as="geometry" />
        </mxCell>
        <mxCell id="s-aq9gnLRd71n7YTumPi-262" value="album_id" style="ellipse;whiteSpace=wrap;html=1;align=center;fontStyle=4;" vertex="1" parent="1">
          <mxGeometry x="680" y="250" width="100" height="40" as="geometry" />
        </mxCell>
        <mxCell id="s-aq9gnLRd71n7YTumPi-298" style="rounded=0;orthogonalLoop=1;jettySize=auto;html=1;exitX=0;exitY=0.5;exitDx=0;exitDy=0;endArrow=none;endFill=0;" edge="1" parent="1" source="s-aq9gnLRd71n7YTumPi-264" target="s-aq9gnLRd71n7YTumPi-273">
          <mxGeometry relative="1" as="geometry" />
        </mxCell>
        <mxCell id="s-aq9gnLRd71n7YTumPi-264" value="rating" style="ellipse;whiteSpace=wrap;html=1;align=center;" vertex="1" parent="1">
          <mxGeometry x="1091" y="860" width="100" height="40" as="geometry" />
        </mxCell>
        <mxCell id="s-aq9gnLRd71n7YTumPi-286" style="rounded=0;orthogonalLoop=1;jettySize=auto;html=1;exitX=0.5;exitY=0;exitDx=0;exitDy=0;endArrow=none;endFill=0;" edge="1" parent="1" source="s-aq9gnLRd71n7YTumPi-265" target="s-aq9gnLRd71n7YTumPi-273">
          <mxGeometry relative="1" as="geometry" />
        </mxCell>
        <mxCell id="s-aq9gnLRd71n7YTumPi-265" value="created_time" style="ellipse;whiteSpace=wrap;html=1;align=center;" vertex="1" parent="1">
          <mxGeometry x="970" y="1060" width="100" height="40" as="geometry" />
        </mxCell>
        <mxCell id="s-aq9gnLRd71n7YTumPi-287" style="rounded=0;orthogonalLoop=1;jettySize=auto;html=1;exitX=0.5;exitY=0;exitDx=0;exitDy=0;endArrow=none;endFill=0;" edge="1" parent="1" source="s-aq9gnLRd71n7YTumPi-266" target="s-aq9gnLRd71n7YTumPi-273">
          <mxGeometry relative="1" as="geometry" />
        </mxCell>
        <mxCell id="s-aq9gnLRd71n7YTumPi-266" value="created_date" style="ellipse;whiteSpace=wrap;html=1;align=center;" vertex="1" parent="1">
          <mxGeometry x="1040" y="1020" width="100" height="40" as="geometry" />
        </mxCell>
        <mxCell id="s-aq9gnLRd71n7YTumPi-306" style="edgeStyle=orthogonalEdgeStyle;rounded=0;orthogonalLoop=1;jettySize=auto;html=1;exitX=0.5;exitY=0;exitDx=0;exitDy=0;strokeWidth=3;" edge="1" parent="1" source="s-aq9gnLRd71n7YTumPi-267" target="s-aq9gnLRd71n7YTumPi-293">
          <mxGeometry relative="1" as="geometry" />
        </mxCell>
        <mxCell id="s-aq9gnLRd71n7YTumPi-267" value="Playlist" style="shape=ext;margin=3;double=1;whiteSpace=wrap;html=1;align=center;" vertex="1" parent="1">
          <mxGeometry x="285" y="920" width="100" height="40" as="geometry" />
        </mxCell>
        <mxCell id="s-aq9gnLRd71n7YTumPi-274" style="edgeStyle=orthogonalEdgeStyle;rounded=0;orthogonalLoop=1;jettySize=auto;html=1;endArrow=none;endFill=0;entryX=0;entryY=0.5;entryDx=0;entryDy=0;" edge="1" parent="1" source="s-aq9gnLRd71n7YTumPi-294" target="s-aq9gnLRd71n7YTumPi-273">
          <mxGeometry relative="1" as="geometry">
            <mxPoint x="689.9999999999995" y="690.0000000000002" as="sourcePoint" />
          </mxGeometry>
        </mxCell>
        <mxCell id="s-aq9gnLRd71n7YTumPi-296" style="edgeStyle=orthogonalEdgeStyle;rounded=0;orthogonalLoop=1;jettySize=auto;html=1;strokeWidth=3;entryX=0.5;entryY=1;entryDx=0;entryDy=0;" edge="1" parent="1" source="s-aq9gnLRd71n7YTumPi-273" target="s-aq9gnLRd71n7YTumPi-295">
          <mxGeometry relative="1" as="geometry">
            <Array as="points" />
          </mxGeometry>
        </mxCell>
        <mxCell id="s-aq9gnLRd71n7YTumPi-326" style="edgeStyle=orthogonalEdgeStyle;rounded=0;orthogonalLoop=1;jettySize=auto;html=1;exitX=1;exitY=0;exitDx=0;exitDy=0;entryX=0;entryY=0.5;entryDx=0;entryDy=0;endArrow=none;endFill=0;" edge="1" parent="1" source="s-aq9gnLRd71n7YTumPi-273" target="s-aq9gnLRd71n7YTumPi-323">
          <mxGeometry relative="1" as="geometry" />
        </mxCell>
        <mxCell id="s-aq9gnLRd71n7YTumPi-273" value="Review" style="shape=ext;margin=3;double=1;whiteSpace=wrap;html=1;align=center;" vertex="1" parent="1">
          <mxGeometry x="905" y="790" width="100" height="40" as="geometry" />
        </mxCell>
        <mxCell id="s-aq9gnLRd71n7YTumPi-278" style="rounded=0;orthogonalLoop=1;jettySize=auto;html=1;exitX=0.5;exitY=1;exitDx=0;exitDy=0;endArrow=none;endFill=0;" edge="1" parent="1" source="s-aq9gnLRd71n7YTumPi-275" target="s-aq9gnLRd71n7YTumPi-238">
          <mxGeometry relative="1" as="geometry" />
        </mxCell>
        <mxCell id="s-aq9gnLRd71n7YTumPi-275" value="artist_id" style="ellipse;whiteSpace=wrap;html=1;align=center;fontStyle=4;" vertex="1" parent="1">
          <mxGeometry x="-85" y="150" width="100" height="40" as="geometry" />
        </mxCell>
        <mxCell id="s-aq9gnLRd71n7YTumPi-280" style="rounded=0;orthogonalLoop=1;jettySize=auto;html=1;exitX=0;exitY=1;exitDx=0;exitDy=0;endArrow=none;endFill=0;" edge="1" parent="1" source="s-aq9gnLRd71n7YTumPi-276" target="s-aq9gnLRd71n7YTumPi-238">
          <mxGeometry relative="1" as="geometry" />
        </mxCell>
        <mxCell id="s-aq9gnLRd71n7YTumPi-276" value="full_name" style="ellipse;whiteSpace=wrap;html=1;align=center;" vertex="1" parent="1">
          <mxGeometry x="-85" y="210" width="100" height="40" as="geometry" />
        </mxCell>
        <mxCell id="s-aq9gnLRd71n7YTumPi-281" style="rounded=0;orthogonalLoop=1;jettySize=auto;html=1;exitX=0.5;exitY=1;exitDx=0;exitDy=0;endArrow=none;endFill=0;" edge="1" parent="1" source="s-aq9gnLRd71n7YTumPi-277" target="s-aq9gnLRd71n7YTumPi-238">
          <mxGeometry relative="1" as="geometry" />
        </mxCell>
        <mxCell id="s-aq9gnLRd71n7YTumPi-277" value="email" style="ellipse;whiteSpace=wrap;html=1;align=center;" vertex="1" parent="1">
          <mxGeometry x="-90" y="270" width="100" height="40" as="geometry" />
        </mxCell>
        <mxCell id="s-aq9gnLRd71n7YTumPi-283" style="rounded=0;orthogonalLoop=1;jettySize=auto;html=1;exitX=0.5;exitY=1;exitDx=0;exitDy=0;endArrow=none;endFill=0;" edge="1" parent="1" source="s-aq9gnLRd71n7YTumPi-282" target="s-aq9gnLRd71n7YTumPi-234">
          <mxGeometry relative="1" as="geometry" />
        </mxCell>
        <mxCell id="s-aq9gnLRd71n7YTumPi-282" value="release_date" style="ellipse;whiteSpace=wrap;html=1;align=center;" vertex="1" parent="1">
          <mxGeometry x="790" y="250" width="100" height="40" as="geometry" />
        </mxCell>
        <mxCell id="s-aq9gnLRd71n7YTumPi-285" style="rounded=0;orthogonalLoop=1;jettySize=auto;html=1;exitX=0;exitY=0;exitDx=0;exitDy=0;endArrow=none;endFill=0;" edge="1" parent="1" source="s-aq9gnLRd71n7YTumPi-284" target="s-aq9gnLRd71n7YTumPi-233">
          <mxGeometry relative="1" as="geometry" />
        </mxCell>
        <mxCell id="s-aq9gnLRd71n7YTumPi-284" value="avg_rating" style="ellipse;whiteSpace=wrap;html=1;align=center;dashed=1;" vertex="1" parent="1">
          <mxGeometry x="280" y="280" width="100" height="40" as="geometry" />
        </mxCell>
        <mxCell id="s-aq9gnLRd71n7YTumPi-289" style="rounded=0;orthogonalLoop=1;jettySize=auto;html=1;exitX=0.5;exitY=1;exitDx=0;exitDy=0;endArrow=none;endFill=0;" edge="1" parent="1" source="s-aq9gnLRd71n7YTumPi-288" target="s-aq9gnLRd71n7YTumPi-233">
          <mxGeometry relative="1" as="geometry" />
        </mxCell>
        <mxCell id="s-aq9gnLRd71n7YTumPi-288" value="track_id" style="ellipse;whiteSpace=wrap;html=1;align=center;fontStyle=4;" vertex="1" parent="1">
          <mxGeometry x="440" y="190" width="100" height="40" as="geometry" />
        </mxCell>
        <mxCell id="s-aq9gnLRd71n7YTumPi-291" style="rounded=0;orthogonalLoop=1;jettySize=auto;html=1;exitX=0.5;exitY=0;exitDx=0;exitDy=0;endArrow=none;endFill=0;" edge="1" parent="1" source="s-aq9gnLRd71n7YTumPi-290" target="s-aq9gnLRd71n7YTumPi-230">
          <mxGeometry relative="1" as="geometry" />
        </mxCell>
        <mxCell id="s-aq9gnLRd71n7YTumPi-290" value="role" style="ellipse;whiteSpace=wrap;html=1;align=center;" vertex="1" parent="1">
          <mxGeometry x="190" y="430" width="100" height="40" as="geometry" />
        </mxCell>
        <mxCell id="s-aq9gnLRd71n7YTumPi-293" value="Created" style="shape=rhombus;double=1;perimeter=rhombusPerimeter;whiteSpace=wrap;html=1;align=center;" vertex="1" parent="1">
          <mxGeometry x="280" y="775" width="110" height="50" as="geometry" />
        </mxCell>
        <mxCell id="s-aq9gnLRd71n7YTumPi-294" value="Writes" style="shape=rhombus;double=1;perimeter=rhombusPerimeter;whiteSpace=wrap;html=1;align=center;" vertex="1" parent="1">
          <mxGeometry x="500" y="655" width="110" height="50" as="geometry" />
        </mxCell>
        <mxCell id="s-aq9gnLRd71n7YTumPi-297" style="edgeStyle=orthogonalEdgeStyle;rounded=0;orthogonalLoop=1;jettySize=auto;html=1;exitX=0;exitY=0.5;exitDx=0;exitDy=0;" edge="1" parent="1" source="s-aq9gnLRd71n7YTumPi-295" target="s-aq9gnLRd71n7YTumPi-233">
          <mxGeometry relative="1" as="geometry">
            <Array as="points">
              <mxPoint x="450" y="475" />
            </Array>
          </mxGeometry>
        </mxCell>
        <mxCell id="s-aq9gnLRd71n7YTumPi-295" value="Belongs" style="shape=rhombus;perimeter=rhombusPerimeter;whiteSpace=wrap;html=1;align=center;" vertex="1" parent="1">
          <mxGeometry x="900" y="450" width="110" height="50" as="geometry" />
        </mxCell>
        <mxCell id="s-aq9gnLRd71n7YTumPi-300" style="rounded=0;orthogonalLoop=1;jettySize=auto;html=1;exitX=1;exitY=0.5;exitDx=0;exitDy=0;endArrow=none;endFill=0;" edge="1" parent="1" source="s-aq9gnLRd71n7YTumPi-299" target="s-aq9gnLRd71n7YTumPi-237">
          <mxGeometry relative="1" as="geometry" />
        </mxCell>
        <mxCell id="s-aq9gnLRd71n7YTumPi-299" value="customer_id" style="ellipse;whiteSpace=wrap;html=1;align=center;fontStyle=4;" vertex="1" parent="1">
          <mxGeometry x="90" y="660" width="100" height="40" as="geometry" />
        </mxCell>
        <mxCell id="s-aq9gnLRd71n7YTumPi-305" style="rounded=0;orthogonalLoop=1;jettySize=auto;html=1;exitX=0;exitY=1;exitDx=0;exitDy=0;endArrow=none;endFill=0;" edge="1" parent="1" source="s-aq9gnLRd71n7YTumPi-304" target="s-aq9gnLRd71n7YTumPi-273">
          <mxGeometry relative="1" as="geometry" />
        </mxCell>
        <mxCell id="s-aq9gnLRd71n7YTumPi-304" value="&lt;span style=&quot;border-bottom: 1px dotted&quot;&gt;customer_id&lt;/span&gt;" style="ellipse;whiteSpace=wrap;html=1;align=center;" vertex="1" parent="1">
          <mxGeometry x="1080" y="790" width="100" height="40" as="geometry" />
        </mxCell>
        <mxCell id="s-aq9gnLRd71n7YTumPi-308" style="rounded=0;orthogonalLoop=1;jettySize=auto;html=1;exitX=0.5;exitY=0;exitDx=0;exitDy=0;endArrow=none;endFill=0;" edge="1" parent="1" source="s-aq9gnLRd71n7YTumPi-307" target="s-aq9gnLRd71n7YTumPi-267">
          <mxGeometry relative="1" as="geometry" />
        </mxCell>
        <mxCell id="s-aq9gnLRd71n7YTumPi-307" value="&lt;span style=&quot;border-bottom: 1px dotted&quot;&gt;customer_id&lt;/span&gt;" style="ellipse;whiteSpace=wrap;html=1;align=center;" vertex="1" parent="1">
          <mxGeometry x="160" y="990" width="100" height="40" as="geometry" />
        </mxCell>
        <mxCell id="s-aq9gnLRd71n7YTumPi-310" style="rounded=0;orthogonalLoop=1;jettySize=auto;html=1;exitX=0.5;exitY=0;exitDx=0;exitDy=0;endArrow=none;endFill=0;" edge="1" parent="1" source="s-aq9gnLRd71n7YTumPi-309" target="s-aq9gnLRd71n7YTumPi-267">
          <mxGeometry relative="1" as="geometry" />
        </mxCell>
        <mxCell id="s-aq9gnLRd71n7YTumPi-309" value="name" style="ellipse;whiteSpace=wrap;html=1;align=center;" vertex="1" parent="1">
          <mxGeometry x="275" y="1010" width="115" height="50" as="geometry" />
        </mxCell>
        <mxCell id="s-aq9gnLRd71n7YTumPi-312" style="rounded=0;orthogonalLoop=1;jettySize=auto;html=1;exitX=0;exitY=1;exitDx=0;exitDy=0;endArrow=none;endFill=0;" edge="1" parent="1" source="s-aq9gnLRd71n7YTumPi-311" target="s-aq9gnLRd71n7YTumPi-234">
          <mxGeometry relative="1" as="geometry" />
        </mxCell>
        <mxCell id="s-aq9gnLRd71n7YTumPi-311" value="title" style="ellipse;whiteSpace=wrap;html=1;align=center;" vertex="1" parent="1">
          <mxGeometry x="827" y="301" width="100" height="40" as="geometry" />
        </mxCell>
        <mxCell id="s-aq9gnLRd71n7YTumPi-314" style="rounded=0;orthogonalLoop=1;jettySize=auto;html=1;exitX=0;exitY=0.5;exitDx=0;exitDy=0;endArrow=none;endFill=0;" edge="1" parent="1" source="s-aq9gnLRd71n7YTumPi-313" target="s-aq9gnLRd71n7YTumPi-273">
          <mxGeometry relative="1" as="geometry" />
        </mxCell>
        <mxCell id="s-aq9gnLRd71n7YTumPi-313" value="comment(optional)" style="ellipse;whiteSpace=wrap;html=1;align=center;" vertex="1" parent="1">
          <mxGeometry x="1076" y="940" width="130" height="60" as="geometry" />
        </mxCell>
        <mxCell id="s-aq9gnLRd71n7YTumPi-320" style="rounded=0;orthogonalLoop=1;jettySize=auto;html=1;exitX=0;exitY=0.5;exitDx=0;exitDy=0;endArrow=none;endFill=0;" edge="1" parent="1" source="s-aq9gnLRd71n7YTumPi-319" target="s-aq9gnLRd71n7YTumPi-234">
          <mxGeometry relative="1" as="geometry" />
        </mxCell>
        <mxCell id="s-aq9gnLRd71n7YTumPi-319" value="most_popular_song" style="ellipse;whiteSpace=wrap;html=1;align=center;" vertex="1" parent="1">
          <mxGeometry x="860" y="360" width="150" height="50" as="geometry" />
        </mxCell>
        <mxCell id="s-aq9gnLRd71n7YTumPi-324" style="edgeStyle=orthogonalEdgeStyle;rounded=0;orthogonalLoop=1;jettySize=auto;html=1;exitX=0;exitY=0.5;exitDx=0;exitDy=0;entryX=1;entryY=0.5;entryDx=0;entryDy=0;endArrow=none;endFill=0;" edge="1" parent="1" source="s-aq9gnLRd71n7YTumPi-321" target="s-aq9gnLRd71n7YTumPi-323">
          <mxGeometry relative="1" as="geometry" />
        </mxCell>
        <mxCell id="s-aq9gnLRd71n7YTumPi-321" value="Staff" style="whiteSpace=wrap;html=1;align=center;" vertex="1" parent="1">
          <mxGeometry x="1480" y="655" width="100" height="40" as="geometry" />
        </mxCell>
        <mxCell id="s-aq9gnLRd71n7YTumPi-323" value="Remove" style="shape=rhombus;perimeter=rhombusPerimeter;whiteSpace=wrap;html=1;align=center;" vertex="1" parent="1">
          <mxGeometry x="1170" y="645" width="120" height="60" as="geometry" />
        </mxCell>
        <mxCell id="s-aq9gnLRd71n7YTumPi-328" style="rounded=0;orthogonalLoop=1;jettySize=auto;html=1;exitX=0.5;exitY=1;exitDx=0;exitDy=0;endArrow=none;endFill=0;" edge="1" parent="1" source="s-aq9gnLRd71n7YTumPi-327" target="s-aq9gnLRd71n7YTumPi-321">
          <mxGeometry relative="1" as="geometry" />
        </mxCell>
        <mxCell id="s-aq9gnLRd71n7YTumPi-327" value="staff_id" style="ellipse;whiteSpace=wrap;html=1;align=center;fontStyle=4;" vertex="1" parent="1">
          <mxGeometry x="1510" y="565" width="100" height="40" as="geometry" />
        </mxCell>
        <mxCell id="s-aq9gnLRd71n7YTumPi-329" value="&lt;br&gt;Constraint: Rating is an integer in the range [1,5]." style="shape=note;size=20;whiteSpace=wrap;html=1;" vertex="1" parent="1">
          <mxGeometry x="1191" y="845" width="100" height="70" as="geometry" />
        </mxCell>
        <mxCell id="s-aq9gnLRd71n7YTumPi-331" value="Constraint: For each Customer, playlist names must be unique." style="shape=note;size=20;whiteSpace=wrap;html=1;" vertex="1" parent="1">
          <mxGeometry x="274.5" y="1060" width="136" height="80" as="geometry" />
        </mxCell>
        <mxCell id="s-aq9gnLRd71n7YTumPi-337" style="rounded=0;orthogonalLoop=1;jettySize=auto;html=1;exitX=0.5;exitY=1;exitDx=0;exitDy=0;endArrow=none;endFill=0;" edge="1" parent="1" source="s-aq9gnLRd71n7YTumPi-332" target="s-aq9gnLRd71n7YTumPi-323">
          <mxGeometry relative="1" as="geometry" />
        </mxCell>
        <mxCell id="s-aq9gnLRd71n7YTumPi-332" value="removal_reason" style="ellipse;shape=doubleEllipse;margin=3;whiteSpace=wrap;html=1;align=center;" vertex="1" parent="1">
          <mxGeometry x="1310" y="585" width="110" height="50" as="geometry" />
        </mxCell>
        <mxCell id="s-aq9gnLRd71n7YTumPi-335" style="rounded=0;orthogonalLoop=1;jettySize=auto;html=1;exitX=0.5;exitY=1;exitDx=0;exitDy=0;endArrow=none;endFill=0;" edge="1" parent="1" source="s-aq9gnLRd71n7YTumPi-333" target="s-aq9gnLRd71n7YTumPi-323">
          <mxGeometry relative="1" as="geometry" />
        </mxCell>
        <mxCell id="s-aq9gnLRd71n7YTumPi-333" value="date" style="ellipse;whiteSpace=wrap;html=1;align=center;" vertex="1" parent="1">
          <mxGeometry x="1060" y="595" width="100" height="40" as="geometry" />
        </mxCell>
        <mxCell id="s-aq9gnLRd71n7YTumPi-336" style="rounded=0;orthogonalLoop=1;jettySize=auto;html=1;exitX=0.5;exitY=1;exitDx=0;exitDy=0;endArrow=none;endFill=0;" edge="1" parent="1" source="s-aq9gnLRd71n7YTumPi-334" target="s-aq9gnLRd71n7YTumPi-323">
          <mxGeometry relative="1" as="geometry" />
        </mxCell>
        <mxCell id="s-aq9gnLRd71n7YTumPi-334" value="time" style="ellipse;whiteSpace=wrap;html=1;align=center;" vertex="1" parent="1">
          <mxGeometry x="1140" y="560" width="100" height="40" as="geometry" />
        </mxCell>
        <mxCell id="s-aq9gnLRd71n7YTumPi-339" style="rounded=0;orthogonalLoop=1;jettySize=auto;html=1;exitX=0.5;exitY=1;exitDx=0;exitDy=0;endArrow=none;endFill=0;" edge="1" parent="1" source="s-aq9gnLRd71n7YTumPi-338" target="s-aq9gnLRd71n7YTumPi-323">
          <mxGeometry relative="1" as="geometry" />
        </mxCell>
        <mxCell id="s-aq9gnLRd71n7YTumPi-338" value="&lt;span style=&quot;border-bottom: 1px dotted&quot;&gt;staff_id&lt;/span&gt;" style="ellipse;whiteSpace=wrap;html=1;align=center;" vertex="1" parent="1">
          <mxGeometry x="1241" y="525" width="100" height="40" as="geometry" />
        </mxCell>
        <mxCell id="s-aq9gnLRd71n7YTumPi-340" value="主要是1...n这些线没画好" style="shape=note;size=20;whiteSpace=wrap;html=1;" vertex="1" parent="1">
          <mxGeometry x="1050" y="180" width="110" height="140" as="geometry" />
        </mxCell>
        <mxCell id="s-aq9gnLRd71n7YTumPi-341" value="还有第三段&lt;div&gt;playlist contains tracks arranged in the order preferred by the user&lt;/div&gt;" style="shape=note;size=20;whiteSpace=wrap;html=1;" vertex="1" parent="1">
          <mxGeometry x="1191" y="185" width="140" height="130" as="geometry" />
        </mxCell>
        <mxCell id="s-aq9gnLRd71n7YTumPi-344" style="rounded=0;orthogonalLoop=1;jettySize=auto;html=1;exitX=1;exitY=0.5;exitDx=0;exitDy=0;endArrow=none;endFill=0;" edge="1" parent="1" source="s-aq9gnLRd71n7YTumPi-342" target="s-aq9gnLRd71n7YTumPi-238">
          <mxGeometry relative="1" as="geometry" />
        </mxCell>
        <mxCell id="s-aq9gnLRd71n7YTumPi-342" value="password" style="ellipse;whiteSpace=wrap;html=1;align=center;" vertex="1" parent="1">
          <mxGeometry x="-90" y="330" width="100" height="40" as="geometry" />
        </mxCell>
        <mxCell id="s-aq9gnLRd71n7YTumPi-345" style="rounded=0;orthogonalLoop=1;jettySize=auto;html=1;exitX=1;exitY=0.5;exitDx=0;exitDy=0;endArrow=none;endFill=0;" edge="1" parent="1" source="s-aq9gnLRd71n7YTumPi-343" target="s-aq9gnLRd71n7YTumPi-238">
          <mxGeometry relative="1" as="geometry" />
        </mxCell>
        <mxCell id="s-aq9gnLRd71n7YTumPi-343" value="mobile_number" style="ellipse;whiteSpace=wrap;html=1;align=center;" vertex="1" parent="1">
          <mxGeometry x="-100" y="380" width="110" height="40" as="geometry" />
        </mxCell>
        <mxCell id="s-aq9gnLRd71n7YTumPi-347" style="rounded=0;orthogonalLoop=1;jettySize=auto;html=1;exitX=1;exitY=0.5;exitDx=0;exitDy=0;endArrow=none;endFill=0;" edge="1" parent="1" source="s-aq9gnLRd71n7YTumPi-346" target="s-aq9gnLRd71n7YTumPi-238">
          <mxGeometry relative="1" as="geometry" />
        </mxCell>
        <mxCell id="s-aq9gnLRd71n7YTumPi-346" value="login_name(unique)" style="ellipse;whiteSpace=wrap;html=1;align=center;" vertex="1" parent="1">
          <mxGeometry x="-100" y="430" width="130" height="40" as="geometry" />
        </mxCell>
        <mxCell id="s-aq9gnLRd71n7YTumPi-351" style="rounded=0;orthogonalLoop=1;jettySize=auto;html=1;exitX=1;exitY=0.5;exitDx=0;exitDy=0;entryX=0;entryY=0;entryDx=0;entryDy=0;endArrow=none;endFill=0;" edge="1" parent="1" source="s-aq9gnLRd71n7YTumPi-349" target="s-aq9gnLRd71n7YTumPi-237">
          <mxGeometry relative="1" as="geometry" />
        </mxCell>
        <mxCell id="s-aq9gnLRd71n7YTumPi-349" value="age" style="ellipse;whiteSpace=wrap;html=1;align=center;" vertex="1" parent="1">
          <mxGeometry x="90" y="600" width="100" height="40" as="geometry" />
        </mxCell>
        <mxCell id="s-aq9gnLRd71n7YTumPi-352" style="rounded=0;orthogonalLoop=1;jettySize=auto;html=1;exitX=1;exitY=0.5;exitDx=0;exitDy=0;entryX=0;entryY=1;entryDx=0;entryDy=0;endArrow=none;endFill=0;" edge="1" parent="1" source="s-aq9gnLRd71n7YTumPi-350" target="s-aq9gnLRd71n7YTumPi-237">
          <mxGeometry relative="1" as="geometry" />
        </mxCell>
        <mxCell id="s-aq9gnLRd71n7YTumPi-350" value="birth_date" style="ellipse;whiteSpace=wrap;html=1;align=center;" vertex="1" parent="1">
          <mxGeometry x="90" y="710" width="100" height="40" as="geometry" />
        </mxCell>
        <mxCell id="s-aq9gnLRd71n7YTumPi-356" style="rounded=0;orthogonalLoop=1;jettySize=auto;html=1;exitX=0;exitY=0.5;exitDx=0;exitDy=0;entryX=1;entryY=0;entryDx=0;entryDy=0;endArrow=none;endFill=0;" edge="1" parent="1" source="s-aq9gnLRd71n7YTumPi-353" target="s-aq9gnLRd71n7YTumPi-321">
          <mxGeometry relative="1" as="geometry" />
        </mxCell>
        <mxCell id="s-aq9gnLRd71n7YTumPi-353" value="address" style="ellipse;whiteSpace=wrap;html=1;align=center;" vertex="1" parent="1">
          <mxGeometry x="1590" y="600" width="100" height="40" as="geometry" />
        </mxCell>
        <mxCell id="s-aq9gnLRd71n7YTumPi-357" style="rounded=0;orthogonalLoop=1;jettySize=auto;html=1;exitX=0;exitY=0;exitDx=0;exitDy=0;entryX=1;entryY=0.75;entryDx=0;entryDy=0;endArrow=none;endFill=0;" edge="1" parent="1" source="s-aq9gnLRd71n7YTumPi-354" target="s-aq9gnLRd71n7YTumPi-321">
          <mxGeometry relative="1" as="geometry" />
        </mxCell>
        <mxCell id="s-aq9gnLRd71n7YTumPi-354" value="compensation" style="ellipse;whiteSpace=wrap;html=1;align=center;" vertex="1" parent="1">
          <mxGeometry x="1620" y="640" width="110" height="50" as="geometry" />
        </mxCell>
        <mxCell id="s-aq9gnLRd71n7YTumPi-364" style="rounded=0;orthogonalLoop=1;jettySize=auto;html=1;exitX=0;exitY=0.5;exitDx=0;exitDy=0;endArrow=none;endFill=0;entryX=1;entryY=1;entryDx=0;entryDy=0;" edge="1" parent="1" source="s-aq9gnLRd71n7YTumPi-358" target="s-aq9gnLRd71n7YTumPi-321">
          <mxGeometry relative="1" as="geometry" />
        </mxCell>
        <mxCell id="s-aq9gnLRd71n7YTumPi-358" value="full_name" style="ellipse;whiteSpace=wrap;html=1;align=center;" vertex="1" parent="1">
          <mxGeometry x="1700" y="690" width="100" height="40" as="geometry" />
        </mxCell>
        <mxCell id="s-aq9gnLRd71n7YTumPi-359" value="email" style="ellipse;whiteSpace=wrap;html=1;align=center;" vertex="1" parent="1">
          <mxGeometry x="1690" y="780" width="100" height="40" as="geometry" />
        </mxCell>
        <mxCell id="s-aq9gnLRd71n7YTumPi-360" value="password" style="ellipse;whiteSpace=wrap;html=1;align=center;" vertex="1" parent="1">
          <mxGeometry x="1650" y="820" width="100" height="40" as="geometry" />
        </mxCell>
        <mxCell id="s-aq9gnLRd71n7YTumPi-365" style="rounded=0;orthogonalLoop=1;jettySize=auto;html=1;exitX=0;exitY=0.5;exitDx=0;exitDy=0;entryX=1;entryY=1;entryDx=0;entryDy=0;endArrow=none;endFill=0;" edge="1" parent="1" source="s-aq9gnLRd71n7YTumPi-361" target="s-aq9gnLRd71n7YTumPi-321">
          <mxGeometry relative="1" as="geometry" />
        </mxCell>
        <mxCell id="s-aq9gnLRd71n7YTumPi-361" value="mobile_number" style="ellipse;whiteSpace=wrap;html=1;align=center;" vertex="1" parent="1">
          <mxGeometry x="1730" y="740" width="110" height="40" as="geometry" />
        </mxCell>
        <mxCell id="s-aq9gnLRd71n7YTumPi-362" value="login_name(unique)" style="ellipse;whiteSpace=wrap;html=1;align=center;" vertex="1" parent="1">
          <mxGeometry x="1520" y="830" width="130" height="40" as="geometry" />
        </mxCell>
        <mxCell id="s-aq9gnLRd71n7YTumPi-366" style="rounded=0;orthogonalLoop=1;jettySize=auto;html=1;exitX=0;exitY=0.5;exitDx=0;exitDy=0;entryX=0.92;entryY=0.97;entryDx=0;entryDy=0;entryPerimeter=0;endArrow=none;endFill=0;" edge="1" parent="1" source="s-aq9gnLRd71n7YTumPi-359" target="s-aq9gnLRd71n7YTumPi-321">
          <mxGeometry relative="1" as="geometry" />
        </mxCell>
        <mxCell id="s-aq9gnLRd71n7YTumPi-367" style="rounded=0;orthogonalLoop=1;jettySize=auto;html=1;exitX=0;exitY=0;exitDx=0;exitDy=0;entryX=0.909;entryY=1.022;entryDx=0;entryDy=0;entryPerimeter=0;endArrow=none;endFill=0;" edge="1" parent="1" source="s-aq9gnLRd71n7YTumPi-360" target="s-aq9gnLRd71n7YTumPi-321">
          <mxGeometry relative="1" as="geometry" />
        </mxCell>
        <mxCell id="s-aq9gnLRd71n7YTumPi-368" style="rounded=0;orthogonalLoop=1;jettySize=auto;html=1;exitX=0.5;exitY=0;exitDx=0;exitDy=0;entryX=0.836;entryY=1.022;entryDx=0;entryDy=0;entryPerimeter=0;endArrow=none;endFill=0;" edge="1" parent="1" source="s-aq9gnLRd71n7YTumPi-362" target="s-aq9gnLRd71n7YTumPi-321">
          <mxGeometry relative="1" as="geometry" />
        </mxCell>
        <mxCell id="s-aq9gnLRd71n7YTumPi-369" value="最后一段最后一句没画出来" style="shape=note;size=20;whiteSpace=wrap;html=1;" vertex="1" parent="1">
          <mxGeometry x="1350" y="189" width="120" height="131" as="geometry" />
        </mxCell>
      </root>
    </mxGraphModel>
  </diagram>
</mxfile>
